PathFileType	4	(X/Y/Z)	c:/Users/goper/Files/vsCode/490R/osim_files/A06/A06_Slow_05.trc
DataRate	CameraRate	NumFrames	NumMarkers	Units                	OrigDataRate	OrigDataStartFrame	OrigNumFrames
120.00	120.00	4	36	mm	120.0	734	1466
                Frame#	Time	LPSIS			LASIS			LTH1			LTH2			LTH3			LTH4			LLFE			LMFE			LSH1			LSH2			LSH3			LSH4			LLMAL			LMMAL			LCAL			LMTP5			LTOE			LMTP1			RPSIS			RASIS			RTH1			RTH2			RTH3			RTH4			RLFE			RMFE			RSH1			RSH2			RSH3			RSH4			RLMAL			RMMAL			RCAL			RMTP1			RTOE			RMTP5		
		X1	Y1	Z1	X2	Y2	Z2	X3	Y3	Z3	X4	Y4	Z4	X5	Y5	Z5	X6	Y6	Z6	X7	Y7	Z7	X8	Y8	Z8	X9	Y9	Z9	X10	Y10	Z10	X11	Y11	Z11	X12	Y12	Z12	X13	Y13	Z13	X14	Y14	Z14	X15	Y15	Z15	X16	Y16	Z16	X17	Y17	Z17	X18	Y18	Z18	X19	Y19	Z19	X20	Y20	Z20	X21	Y21	Z21	X22	Y22	Z22	X23	Y23	Z23	X24	Y24	Z24	X25	Y25	Z25	X26	Y26	Z26	X27	Y27	Z27	X28	Y28	Z28	X29	Y29	Z29	X30	Y30	Z30	X31	Y31	Z31	X32	Y32	Z32	X33	Y33	Z33	X34	Y34	Z34	X35	Y35	Z35	X36	Y36	Z36

734	6.10833	-290.04538	976.03772	313.99368	-477.86371	930.22211	385.85989	-497.28674	570.56921	424.75223	-520.56476	535.10419	419.25711	-556.78296	596.48956	417.92184	-569.29773	556.09790	413.54544	-575.74591	482.87967	404.53995	-578.61957	479.00983	295.03290	-556.63025	380.77509	416.55994	-581.00610	341.59995	423.88025	-613.20435	406.38306	412.61221	-629.44031	367.18536	418.78235	-697.12958	105.90434	387.14801	-712.74408	128.83115	306.56943	-645.84485	71.06347	331.88135	-822.43207	108.61864	409.23245	-848.74701	150.43822	359.47507	-834.23657	135.00720	318.35831	-293.33533	993.55994	183.05615	-469.49664	954.12921	126.12621	-286.51840	593.76404	96.12412	-280.02554	551.46643	97.08068	-346.47256	576.15778	105.37642	-330.18427	535.04706	103.43347	-268.93411	435.60449	126.03614	-271.35806	438.98630	215.88638	-203.05252	293.20438	143.17297	-189.48003	247.90067	146.36241	-258.64157	272.59256	155.23955	-238.47644	229.41252	152.26427	-138.52766	108.80772	142.17378	-150.90697	111.75415	225.56712	-79.56183	92.97780	189.55803	-278.47736	52.65991	219.73703	-295.87485	62.41940	179.00595	-267.20050	49.92310	132.31468
735	6.11667	-299.28333	974.47943	314.99637	-487.07553	928.92035	386.39716	-506.91278	569.32593	424.98376	-530.16620	533.87152	419.42606	-566.43433	595.28979	418.05847	-578.99298	554.80188	413.59531	-585.15155	481.51636	404.71466	-588.04486	477.80978	295.24146	-565.53882	379.09415	416.52252	-589.44879	339.76041	423.72565	-622.06451	404.27515	412.64767	-638.03040	365.00653	418.53049	-702.88202	103.05254	386.38251	-718.33594	125.91519	305.75940	-650.89441	68.78492	331.54214	-828.13641	104.79717	408.00955	-854.59332	146.33243	358.09018	-840.00848	131.14360	317.13754	-302.17365	992.44189	184.06721	-478.21545	953.45813	126.68752	-293.36273	593.41180	96.41364	-286.39807	551.16779	97.42024	-353.10333	575.19513	105.73389	-336.41721	534.09662	103.75984	-273.94644	435.46332	126.21238	-276.39069	438.75693	216.10310	-206.16536	293.85095	143.34869	-192.28473	248.73474	146.48428	-261.68317	272.56378	155.40608	-240.98102	229.64706	152.41376	-139.18001	109.64053	142.20544	-151.56998	112.38908	225.73305	-80.14100	93.97877	189.60501	-278.70709	52.54187	219.75893	-296.22049	62.21412	179.06699	-267.19608	49.90418	132.15874
736	6.12500	-307.75705	973.39709	315.48254	-496.30493	927.49323	387.10385	-516.76031	568.10834	425.24243	-540.06250	532.68445	419.54797	-576.39874	594.30231	418.02979	-588.88623	553.72913	413.44141	-595.05432	480.24905	404.71768	-597.53937	476.72296	295.42596	-574.29553	377.25748	416.59845	-597.51434	337.73801	423.54608	-631.08057	401.94864	412.44476	-646.41736	362.39481	418.18478	-706.62323	100.57125	385.60953	-722.51215	122.54549	304.67920	-653.89777	67.99138	330.65112	-832.12988	99.82816	406.44699	-858.82483	140.38425	355.97882	-844.08600	125.51421	315.40244	-311.13602	991.30029	184.93318	-487.16071	952.61322	127.42253	-300.43604	592.69342	96.88660	-292.80652	550.90204	97.67224	-359.75705	574.17078	106.07228	-342.65634	533.22864	104.03360	-279.02182	435.25201	126.45948	-281.47464	438.53552	216.30424	-209.42741	294.44635	143.52763	-194.96306	249.75108	146.71468	-264.78897	272.56549	155.52402	-243.48302	229.86050	152.55136	-139.73184	110.39287	142.27664	-152.56662	113.01173	225.68506	-80.61813	95.22935	189.64423	-278.90060	52.46690	219.78128	-296.54395	62.08276	179.11754	-267.43478	49.92548	132.17511
737	6.13333	-317.82303	971.38226	316.53580	-505.50528	925.89014	387.97433	-527.00824	566.95428	425.39020	-550.35565	531.49005	419.62552	-586.66040	593.18329	418.06342	-599.03693	552.59369	413.46365	-605.30176	478.97910	404.51276	-607.03662	475.57095	295.50000	-583.03955	375.35349	416.66037	-605.40442	335.59241	423.31549	-639.99866	399.24356	411.96378	-654.51843	359.40295	417.56854	-709.04321	98.74652	384.52759	-725.66827	118.90469	303.26205	-655.92102	67.81046	329.61707	-834.65430	93.72617	404.52432	-863.29187	132.85556	353.48639	-847.61597	117.96979	313.28024	-320.29898	990.10822	185.65215	-496.40891	951.70538	128.15233	-307.57678	592.26044	97.10222	-299.33163	550.44177	97.89598	-367.26096	573.44232	106.07063	-349.07608	532.24542	104.32622	-284.09091	435.00726	126.70316	-286.62558	438.24615	216.50365	-212.82527	295.04333	143.68137	-198.42604	250.23065	146.13345	-268.03937	272.53864	155.41920	-245.96835	230.09821	152.68977	-140.34274	111.23216	142.28210	-152.88377	113.71652	225.81151	-81.18467	96.40785	189.54732	-279.13712	52.37983	219.79709	-296.90201	61.92690	179.16411	-267.71454	49.97211	132.15506
